<svg xmlns="http://www.w3.org/2000/svg" xmlns:xlink="http://www.w3.org/1999/xlink" id="Layer_1" x="0" y="0" version="1.1" viewBox="0 0 20 20" xml:space="preserve" style="enable-background:new 0 0 20 20"><style type="text/css">.st0{fill:#0782a3}.st1,.st2{fill:#fff}.st2{stroke:#0782a3;stroke-miterlimit:10}</style><rect id="XMLID_1_" width="17.4" height="16" x="1.3" y="3.6" class="st0"/><rect id="XMLID_3_" width="16" height="11.9" x="2" y="7.1" class="st1"/><path id="XMLID_4_" d="M6.5,6.4L6.5,6.4C5.7,6.4,5,5.8,5,4.9V2.2c0-0.8,0.7-1.5,1.5-1.5h0C7.3,0.7,8,1.4,8,2.2v2.8	C8,5.8,7.3,6.4,6.5,6.4z" class="st2"/><path id="XMLID_6_" d="M13.5,6.4L13.5,6.4c-0.8,0-1.5-0.7-1.5-1.5V2.2c0-0.8,0.7-1.5,1.5-1.5h0c0.8,0,1.5,0.7,1.5,1.5	v2.8C15,5.8,14.3,6.4,13.5,6.4z" class="st2"/><rect id="XMLID_5_" width="16.7" height=".9" x="1.7" y="10.1" class="st0"/><rect id="XMLID_11_" width=".9" height="15" x="1.5" y="4.1" class="st0"/><rect id="XMLID_12_" width=".9" height="15" x="17.5" y="4.4" class="st0"/><rect id="XMLID_8_" width="16.7" height=".9" x="1.7" y="14.3" class="st0"/><rect id="XMLID_10_" width="16.7" height=".9" x="1.7" y="18.5" class="st0"/><rect id="XMLID_16_" width=".9" height="12.1" x="5.5" y="7" class="st0"/><rect id="XMLID_17_" width=".9" height="12.1" x="9.5" y="6.9" class="st0"/><rect id="XMLID_18_" width=".9" height="12.1" x="13.5" y="7" class="st0"/></svg>